<?xml version="1.0" encoding="UTF-8" standalone="no"?>
<!DOCTYPE svg PUBLIC "-//W3C//DTD SVG 1.1//EN" "http://www.w3.org/Graphics/SVG/1.1/DTD/svg11.dtd">
<svg version="1.1" xmlns="http://www.w3.org/2000/svg" xmlns:xlink="http://www.w3.org/1999/xlink" preserveAspectRatio="xMidYMid meet" viewBox="0 0 640 640" width="640" height="640"><defs><path d="M176.1 620.85L446.34 620.85L446.34 628.85L176.1 628.85L176.1 620.85Z" id="jOG0VwEOW"></path><path d="M305.34 527.21L310.15 533.6L184.52 628.27L179.7 621.88L305.34 527.21Z" id="ab6XZuRAq"></path><path d="M321.78 534.7L326.7 528.4L444.97 620.8L440.05 627.1L321.78 534.7Z" id="byy7Iax8G"></path><path d="M302.15 378.6L310.15 378.6L310.15 535.91L302.15 535.91L302.15 378.6Z" id="a1ge3t6c9i"></path><path d="M321.78 378.6L329.77 378.6L329.77 535.91L321.78 535.91L321.78 378.6Z" id="a2AUPrNTLf"></path><path d="M503.94 229.26L498.69 223.22L321.78 377.01L327.02 383.04L503.94 229.26Z" id="b2iywHIVJ5"></path><path d="M118.84 222.56L113.8 228.78L305.12 383.7L310.15 377.49L118.84 222.56Z" id="c2qCS9Uj"></path><path d="M314.8 376.21L186.98 265.09L189.12 262.63L316.94 373.75L314.8 376.21Z" id="c13DZmWruy"></path><path d="M118.61 222.56L118.61 230.56L503.94 230.56L503.94 222.56L118.61 222.56Z" id="c19JSV80Nh"></path><path d="M441.07 265.41L316.68 373.54L314.54 371.08L438.93 262.95L441.07 265.41Z" id="a2eQopWX8X"></path><path d="M186.98 261L441.07 261L441.07 264.26L186.98 264.26L186.98 261Z" id="a1nZBK9uZ"></path><path d="M314.02 346.82C314.02 350.02 314.02 352.62 314.02 352.62C314.02 352.62 314.02 350.02 314.02 346.82C314.02 343.62 314.02 341.02 314.02 341.02C314.02 342.18 314.02 343.62 314.02 346.82Z" id="a2xhJX5vxZ"></path><path d="M223.62 264.26L406.23 264.26L406.23 289.57L223.62 289.57L223.62 264.26Z" id="a1LyWAU0Z3"></path><path d="M285.22 287.39L347.54 287.39L347.54 343.19L285.22 343.19L285.22 287.39Z" id="ajwN6i7ZQ"></path><path d="M247.54 289.57L383.37 289.57L383.37 313.48L247.54 313.48L247.54 289.57Z" id="c2XtHcB0"></path><path d="M417.49 282.86L314.97 371.97L298.81 353.38L401.33 264.26L417.49 282.86Z" id="g4smKl4Dv"></path><path d="M312.83 371.97L199.56 273.51L208.5 263.22L321.78 361.68L312.83 371.97Z" id="aRK6dYiQ8"></path><path d="M211.65 271.29L220.61 261L329.77 356.03L320.82 366.31L211.65 271.29Z" id="bKBgjyQwA"></path><path d="M274.35 313.48L285.22 313.48L285.22 320L274.35 320L274.35 313.48Z" id="a3bOfbTm1Q"></path><path d="M352.61 264.26L417.49 264.26L417.49 283.77L352.61 283.77L352.61 264.26Z" id="b68VZcGcNo"></path><path d="M199.56 262.63L221.45 262.63L221.45 274.01L199.56 274.01L199.56 262.63Z" id="b5HvXUUlRU"></path><path d="M386.63 264.26L425.83 264.26L425.83 275.86L386.63 275.86L386.63 264.26Z" id="bITmoiF12"></path><path d="M367.35 312.2L426.74 262.37L432.8 269.58L373.4 319.42L367.35 312.2Z" id="ab9ZNMRdh"></path><path d="M38.9 225.43C38.9 267.43 74.62 301.52 118.61 301.52C162.61 301.52 198.32 267.43 198.32 225.43C198.32 183.44 162.61 149.35 118.61 149.35C74.62 149.35 38.9 183.44 38.9 225.43Z" id="c6N8SPscSH"></path><path d="M320 264.26L436.67 264.26L436.67 269.33L320 269.33L320 264.26Z" id="e3F9OygU7z"></path><path d="M190.14 262.63L336.67 262.63L336.67 268.43L190.14 268.43L190.14 262.63Z" id="c9M4g6h5n"></path><path d="M195.36 267.89L256.08 267.89L256.08 272.23L195.36 272.23L195.36 267.89Z" id="bjgesjFO5"></path><path d="M88.34 282.01L59.13 249.2L112.03 230.56L88.34 282.01Z" id="f1Ghwx9Dpn"></path><path d="M118.61 222.56L113.8 226.56L185.22 287.39L190.14 280.14L130.87 230.56L213.48 230.56L213.48 222.56L118.61 222.56Z" id="hvE1f7PkQ"></path><path d="M4400.47 962.49L4391.58 919.47L4446.71 929.78L4400.47 962.49Z" id="aG6pysb"></path><path d="M56.57 235.67L65.62 192.68L112.03 224.18L56.57 235.67Z" id="aafsRRWmtA"></path><path d="M72.82 182.4L112.16 162.85L116.22 218.79L72.82 182.4Z" id="a2i09o9GtL"></path><path d="M177.01 192.68L186.98 235.47L131.61 226.54L177.01 192.68Z" id="bejpt82DT"></path><path d="M128.69 160.6L167.47 181.24L124.32 217.07L128.69 160.6Z" id="bCY2Mxhou"></path><path d="M182.34 251.11L154.44 285.05L127.84 235.67L182.34 251.11Z" id="aBUrp4LaJ"></path><path d="M140.55 288.61L96.67 286.48L120.42 235.67L140.55 288.61Z" id="bLTeR80hC"></path><path d="M118.61 222.56L113.8 226.56L185.22 287.39L190.14 280.14L130.87 230.56L213.48 230.56L213.48 222.56L118.61 222.56Z" id="i2DmAYuKNy"></path><path d="M187.38 284.34L219.09 307.38L217.18 310.02L185.46 286.97L187.38 284.34Z" id="a1qXMpfLIG"></path><path d="M244.93 279.31L389.34 279.31L389.34 294.88L244.93 294.88L244.93 279.31Z" id="eeXh5fmPT"></path><path d="M467.33 42.87L624.21 84.54L622.4 91.38L465.52 49.71L467.33 42.87Z" id="i4gRoRgwjL"></path><path d="M466.89 42.87L473.7 47.07L311.8 310.02L304.99 305.83L466.89 42.87Z" id="bFjsR7PPn"></path><path d="M327.78 222.56L402.56 222.56L402.56 229.93L327.78 229.93L327.78 222.56Z" id="c2ervk66g"></path></defs><g><g><g><use xlink:href="#jOG0VwEOW" opacity="1" fill="#a333c8" fill-opacity="1"></use></g><g><use xlink:href="#ab6XZuRAq" opacity="1" fill="#a333c8" fill-opacity="1"></use></g><g><use xlink:href="#byy7Iax8G" opacity="1" fill="#a333c8" fill-opacity="1"></use></g><g><use xlink:href="#a1ge3t6c9i" opacity="1" fill="#a333c8" fill-opacity="1"></use></g><g><use xlink:href="#a2AUPrNTLf" opacity="1" fill="#a333c8" fill-opacity="1"></use></g><g><use xlink:href="#b2iywHIVJ5" opacity="1" fill="#a333c8" fill-opacity="1"></use><g><use xlink:href="#b2iywHIVJ5" opacity="1" fill-opacity="0" stroke="#a333c8" stroke-width="1" stroke-opacity="1"></use></g></g><g><use xlink:href="#c2qCS9Uj" opacity="1" fill="#a333c8" fill-opacity="1"></use></g><g><use xlink:href="#c13DZmWruy" opacity="1" fill="#2acdc1" fill-opacity="1"></use></g><g><use xlink:href="#c19JSV80Nh" opacity="1" fill="#a333c8" fill-opacity="1"></use><g><use xlink:href="#c19JSV80Nh" opacity="1" fill-opacity="0" stroke="#a333c8" stroke-width="1" stroke-opacity="1"></use></g></g><g><use xlink:href="#a2eQopWX8X" opacity="1" fill="#2acdc1" fill-opacity="1"></use></g><g><use xlink:href="#a1nZBK9uZ" opacity="1" fill="#2acdc1" fill-opacity="1"></use></g><g><use xlink:href="#a2xhJX5vxZ" opacity="1" fill="#1f63cb" fill-opacity="1"></use></g><g><use xlink:href="#a1LyWAU0Z3" opacity="1" fill="#2acdc1" fill-opacity="1"></use></g><g><use xlink:href="#ajwN6i7ZQ" opacity="1" fill="#2acdc1" fill-opacity="1"></use></g><g><use xlink:href="#c2XtHcB0" opacity="1" fill="#2acdc1" fill-opacity="1"></use></g><g><use xlink:href="#g4smKl4Dv" opacity="1" fill="#2acdc1" fill-opacity="1"></use></g><g><use xlink:href="#aRK6dYiQ8" opacity="1" fill="#2acdc1" fill-opacity="1"></use></g><g><use xlink:href="#bKBgjyQwA" opacity="1" fill="#2acdc1" fill-opacity="1"></use></g><g><use xlink:href="#a3bOfbTm1Q" opacity="1" fill="#2acdc1" fill-opacity="1"></use></g><g><use xlink:href="#b68VZcGcNo" opacity="1" fill="#2acdc1" fill-opacity="1"></use></g><g><use xlink:href="#b5HvXUUlRU" opacity="1" fill="#2acdc1" fill-opacity="1"></use></g><g><use xlink:href="#bITmoiF12" opacity="1" fill="#2acdc1" fill-opacity="1"></use></g><g><use xlink:href="#ab9ZNMRdh" opacity="1" fill="#2acdc1" fill-opacity="1"></use></g><g><use xlink:href="#c6N8SPscSH" opacity="0.92" fill="#feef26" fill-opacity="1"></use><g><use xlink:href="#c6N8SPscSH" opacity="0.92" fill-opacity="0" stroke="#b7ab05" stroke-width="1" stroke-opacity="1"></use></g></g><g><use xlink:href="#e3F9OygU7z" opacity="1" fill="#2acdc1" fill-opacity="1"></use></g><g><use xlink:href="#c9M4g6h5n" opacity="1" fill="#2acdc1" fill-opacity="1"></use></g><g><use xlink:href="#bjgesjFO5" opacity="1" fill="#2acdc1" fill-opacity="1"></use></g><g><g><use xlink:href="#f1Ghwx9Dpn" opacity="1" fill-opacity="0" stroke="#b7ab05" stroke-width="1" stroke-opacity="1"></use></g></g><g><use xlink:href="#hvE1f7PkQ" opacity="1" fill="#a333c8" fill-opacity="1"></use></g><g><g><use xlink:href="#aG6pysb" opacity="1" fill-opacity="0" stroke="#870abb" stroke-width="1" stroke-opacity="1"></use></g></g><g><g><use xlink:href="#aafsRRWmtA" opacity="1" fill-opacity="0" stroke="#b7ab05" stroke-width="1" stroke-opacity="1"></use></g></g><g><g><use xlink:href="#a2i09o9GtL" opacity="1" fill-opacity="0" stroke="#b7ab05" stroke-width="1" stroke-opacity="1"></use></g></g><g><g><use xlink:href="#bejpt82DT" opacity="1" fill-opacity="0" stroke="#b7ab05" stroke-width="1" stroke-opacity="1"></use></g></g><g><g><use xlink:href="#bCY2Mxhou" opacity="1" fill-opacity="0" stroke="#b7ab05" stroke-width="1" stroke-opacity="1"></use></g></g><g><g><use xlink:href="#aBUrp4LaJ" opacity="1" fill-opacity="0" stroke="#b7ab05" stroke-width="1" stroke-opacity="1"></use></g></g><g><g><use xlink:href="#bLTeR80hC" opacity="1" fill-opacity="0" stroke="#b7ab05" stroke-width="1" stroke-opacity="1"></use></g></g><g><use xlink:href="#i2DmAYuKNy" opacity="1" fill="#a333c8" fill-opacity="1"></use></g><g><use xlink:href="#a1qXMpfLIG" opacity="1" fill="#a333c8" fill-opacity="1"></use><g><use xlink:href="#a1qXMpfLIG" opacity="1" fill-opacity="0" stroke="#a333c8" stroke-width="1" stroke-opacity="1"></use></g></g><g><use xlink:href="#eeXh5fmPT" opacity="1" fill="#2acdc1" fill-opacity="1"></use></g><g><use xlink:href="#i4gRoRgwjL" opacity="1" fill="#04049d" fill-opacity="1"></use><g><use xlink:href="#i4gRoRgwjL" opacity="1" fill-opacity="0" stroke="#870abb" stroke-width="1" stroke-opacity="1"></use></g></g><g><use xlink:href="#bFjsR7PPn" opacity="1" fill="#04049d" fill-opacity="1"></use></g><g><use xlink:href="#c2ervk66g" opacity="1" fill="#a333c8" fill-opacity="1"></use><g><use xlink:href="#c2ervk66g" opacity="1" fill-opacity="0" stroke="#a333c8" stroke-width="1" stroke-opacity="1"></use></g></g></g></g></svg>